<svg id="Layer_1" data-name="Layer 1" xmlns="http://www.w3.org/2000/svg" viewBox="0 0 432 252"><defs><style>.cls-1{fill:#daebeb;}.cls-2{fill:#009595;}.cls-3{fill:#0e7570;}.cls-4{fill:#fff100;}.cls-5{fill:#f6921e;}</style></defs><title>EAC_Logo_Colour</title><polygon class="cls-1" points="75.74 151.06 79.41 151.06 77.56 142.22 75.74 151.06"/><path class="cls-1" d="M176.31,141.09c0-.85-.52-1.15-1.86-1.15h-1.11v2.21h1.1C175.78,142.16,176.31,141.76,176.31,141.09Z"/><path class="cls-1" d="M167.13,110c0-4.67-2.36-7.53-6.45-7.53h-.62v14.71h.62C164.82,117.18,167.13,114.67,167.13,110Z"/><path class="cls-1" d="M184.78,135.56c-1,0-1.46,1-1.46,3.27s.43,3.14,1.46,3.14,1.46-.91,1.46-3.14S185.81,135.56,184.78,135.56Z"/><path class="cls-1" d="M175.62,136.47c0-.86-.63-1.1-1.43-1.1h-.85v2.19h1C175.05,137.57,175.62,137.18,175.62,136.47Z"/><path class="cls-1" d="M225.53,139a4,4,0,1,0,1,5.6A4,4,0,0,0,225.53,139Z"/><polygon class="cls-1" points="137.42 114.13 141.09 114.13 139.23 105.3 137.42 114.13"/><path class="cls-1" d="M131.43,139.4H128.5v6.48h3.28c2.24,0,3.94-1,3.94-3.24S133.86,139.4,131.43,139.4Z"/><polygon class="cls-1" points="163.8 156.42 165.38 156.42 164.58 152.62 163.8 156.42"/><path class="cls-1" d="M254.27,150l-5.08,6a1,1,0,0,0,0,1.34l1.67,1.41a1,1,0,0,0,1.33-.17l5.08-6a4.63,4.63,0,0,0,1-4.22A4.63,4.63,0,0,0,254.27,150Z"/><path class="cls-1" d="M100.56,117.26c2.39,0,3.4-2.12,3.4-7.29,0-5.33-1-7.6-3.4-7.6s-3.4,2.28-3.4,7.6C97.16,115.14,98.16,117.26,100.56,117.26Z"/><ellipse class="cls-1" cx="312.6" cy="155.06" rx="2.37" ry="1.83"/><path class="cls-1" d="M304.32,102.48h-2.55V109h2.89c2.24,0,3.94-1,3.94-3.24S306.75,102.48,304.32,102.48Z"/><path class="cls-1" d="M395.72,84.11H32.24v91.07A18.87,18.87,0,0,0,47,168.13l2.28-2.82,2.28,2.82a18.95,18.95,0,0,0,29.49,0l2.28-2.82,2.28,2.82a18.95,18.95,0,0,0,29.49,0l2.28-2.82,2.28,2.82a18.95,18.95,0,0,0,29.49,0l2.28-2.82,2.28,2.82a18.95,18.95,0,0,0,29.49,0l2.28-2.82,2.28,2.82a18.87,18.87,0,0,0,14.75,7.05H366.71L345,146.32ZM100.56,95.53c7.68,0,11.15,4.52,11.15,14.44s-3.47,14.13-11.15,14.13S89.4,119.89,89.4,110,92.88,95.53,100.56,95.53Zm-23.23,0c8.49,0,10.46,5,10.5,10.88l-7.06,1.16c0-2.86-1-5.21-3.43-5.21s-3.4,2.28-3.4,7.6c0,5.17,1,7.29,3.4,7.29s3.43-1.58,3.43-5l7,1.16c0,5.6-1.89,10.65-10.46,10.65-7.68,0-11.15-4.21-11.15-14.13S69.65,95.53,77.33,95.53Zm-32.38.31H64.63v6.64h-12v4.09H62v6.6H52.63v4h12v6.6H44.95ZM55.29,161c-7.68,0-11.15-4.21-11.15-14.13s3.47-14.44,11.15-14.44c8.49,0,10.46,5,10.5,10.88l-7.06,1.16c0-2.86-1-5.21-3.43-5.21s-3.4,2.28-3.4,7.6c0,5.17,1,7.29,3.4,7.29s3.43-1.58,3.43-5l7,1.16C65.75,156,63.86,161,55.29,161Zm26.13-.31-1-4.71H74.74l-1,4.71h-8l8-27.94h7.64l8,27.94Zm36,0h-7.68V145.27l-5.67,7.14-5.67-7.14v15.44H90.72V132.77H97l7.1,9.53,7.1-9.53h6.25Zm-3.13-47.23v-6.84h14.8L127,113.48Zm16.87,39H128.5v8.18h-7.68V132.77h10.42c6.83,0,11.46,2.35,11.46,10C142.7,149.24,137.84,152.53,131.16,152.53Zm11.93-28.74-1-4.71h-5.67l-1,4.71h-8l8-27.94h7.64l8,27.94ZM269.32,95.84H277v17.1c0,2.55.73,4.32,3.09,4.32s3.13-1.74,3.13-4.32V95.84h7.68v17.87c0,6.37-2.35,10.38-10.81,10.38s-10.77-4-10.77-10.38Zm-22.5,0h20.57v6.6h-6.44v21.34h-7.68V102.44h-6.44Zm-47,0h19.68v6.64h-12v4.09h9.38v6.6h-9.38v4h12v6.6H199.78Zm-16.9,0,3.78,17,3.86-17h8l-8,27.94H182.3l-8-27.94Zm-30.49,0h8.49c8,0,14,5.52,14,14.16s-6,13.78-14,13.78h-8.49Zm16.73,46.1v2.84H162v-12h3.31v9.19Zm-16.73-9.19h8.48v2.86H155.7v1.76h4v2.84h-4v1.73h5.17v2.84h-8.48Zm7.1,27.83h-7.1v-12h3.31v9.19h3.79Zm6.75,0-.43-2h-2.44l-.42,2h-3.46l3.46-12h3.29l3.46,12ZM170,132.75h3.66c3.34,0,5.1,1,5.1,3.06a2.57,2.57,0,0,1-1.45,2.59,3,3,0,0,1,2,2.86c0,2.54-1.74,3.52-5.05,3.52H170Zm10.26,27.83H176.4l-2.31-3.31-.53.7v2.61h-3.31v-12h3.31V153l3.17-4.5h3.89l-4.6,6.15Zm9.18-9.17H184.3v1.76h4V156h-4v1.73h5.17v2.84H181v-12h8.48Zm-4.69-6.49c-3.31,0-4.8-1.81-4.8-6.08s1.49-6.22,4.8-6.22,4.8,1.94,4.8,6.22S188.09,144.91,184.78,144.91Zm18-.13h-3.51l-1.61-7.66-1.71,7.66h-3.46l-2.79-12h3.54l1.21,7.28,1.61-7.28H199l2,7.28,1-7.28h3.37Zm26.46,1.73a7.34,7.34,0,0,1-9.32,2.32l-.62.87,0,0a2.33,2.33,0,0,1-.27,2.19l-3.07,4.34a2.34,2.34,0,1,1-3.82-2.7l3.07-4.34a2.34,2.34,0,0,1,2-1l0,0,.67-1a7.35,7.35,0,0,1,5.45-12.3h0a7.36,7.36,0,0,1,6,11.6Zm.58-39.55v16.83h-7.68V95.84h6.25l8.64,8.61V95.84h7.68v27.94H237v-9.73Zm66.73,39.44a10.56,10.56,0,0,1-9.2,8.83,10.93,10.93,0,0,1-1.22.07H257.44l-3.78,4.47a2.82,2.82,0,0,1-4,.39L248,158.74a2.82,2.82,0,0,1-.27-4l.14-.16a10.53,10.53,0,0,1-1.44-19,1.16,1.16,0,0,1,1.43.25,18.52,18.52,0,0,0,13.76,6.1h.79l3.45-4.08-.76-.64a1,1,0,0,1,1.23-1.46l3,2.51a1,1,0,0,1-1.23,1.46l-.75-.64-2.41,2.84h11.18a18.52,18.52,0,0,0,13.76-6.1,1.16,1.16,0,0,1,1.43-.25A10.53,10.53,0,0,1,296.54,146.39Zm5.24-31.52v8.92H294.1V95.84h10c6.83,0,11.46,2.35,11.46,10a8,8,0,0,1-4.75,7.64l4.86,10.3H308l-4.25-8.92Zm26.25,44a4.81,4.81,0,0,1-5.74-3.66,5,5,0,0,1-.11-1.08l.06-7.19a2.72,2.72,0,0,0-4.79,0l.06,7.19a4.81,4.81,0,1,1-9.62.08,5,5,0,0,1,.11-1.08l3.42-15.42a3,3,0,0,1,6,.63l0,4.51a5.88,5.88,0,0,1,4.87,0l0-4.51a3,3,0,0,1,6-.63l3.42,15.42A4.81,4.81,0,0,1,328,158.86Zm9.6-56.38h-12v4.09H335v6.6h-9.38v4h12v6.6H317.95V95.84h19.68Z"/><ellipse class="cls-1" cx="327.08" cy="155.06" rx="2.37" ry="1.83"/><path d="M408.06,78.25H210.81V72.06L117.37,18,23.94,72.06V180l93.3,54,1.89-.94L209,181h169.4l-26-34.58ZM202.5,76.85v1.4H136.38c0-.21-.05-.41-.07-.62l52.86-8.5ZM182.86,65.48l-47,9.27a18.9,18.9,0,0,0-.74-2.25L168.22,57ZM163.29,54.16,133.69,69.7a19.16,19.16,0,0,0-2.59-3.35l18.55-20.07ZM114.5,64.64a14.87,14.87,0,0,1,5.43,0q.74.13,1.45.32h0c.46.13.92.28,1.36.45a15.09,15.09,0,0,1,3.4,1.84c.36.26.71.54,1,.83l.18.15c.31.27.6.56.88.85a15.11,15.11,0,0,1,4.18,9.21h-30.2a15.11,15.11,0,0,1,4.26-9.3c.21-.21.4-.42.62-.62l.25-.21c.31-.27.62-.53,1-.77a15.07,15.07,0,0,1,6.14-2.71Zm-2.09-8.39a3.86,3.86,0,0,0,.69-.6,5.38,5.38,0,0,1,2.41-1.54,23.47,23.47,0,0,0,7.39-1.5l-2,8.18a18.79,18.79,0,0,0-7.31.06Zm20.06,22h0Zm-.73-42.34,13.7,7.93L128.62,64.17A19,19,0,0,0,124,61.65l3.43-11.35a19.75,19.75,0,0,0,3.7-3.2,3.87,3.87,0,0,0-.93-6Zm-14.37-8.31,10.28,5.95-1.56,6.26a5.79,5.79,0,0,0-5.75,2.48A7,7,0,0,1,116.25,39a3.9,3.9,0,0,0-4.77-1.77l0,0-.25.06-.36.23a3.91,3.91,0,0,0-1.93,3.25c0,.49,0,1,0,1.44l-2.12-8.51ZM106.63,48.7a1,1,0,0,1,1.24-.6h0a20.36,20.36,0,0,0,6.7,1.14h.2l.19,0a10.65,10.65,0,0,1-3.16-8.36,1,1,0,0,1,.53-.84h0l.12-.05a1,1,0,0,1,1.2.44,9.89,9.89,0,0,0,8.5,5.09,3.07,3.07,0,0,1,5.4-1.77,1,1,0,0,1,1.31,1.43,19,19,0,0,1-13.83,6,8.36,8.36,0,0,0-4.15,2.5,1,1,0,0,1-1.45-1.3,10.21,10.21,0,0,1,1.65-1.47,22.44,22.44,0,0,1-3.88-1h0A1,1,0,0,1,106.63,48.7Zm-3.91-12.63,2.9,9.58a3.89,3.89,0,0,0,.65,7.07h0a4,4,0,0,0,0,.53,3.91,3.91,0,0,0,2.61,3.48l.06,0,1.51,5a19,19,0,0,0-4.58,2.56L89.08,44ZM84.88,46.39l18.6,20.12a19.17,19.17,0,0,0-2.42,3.18L71.45,54.16ZM66.53,57,99.68,72.51a18.92,18.92,0,0,0-.76,2.31L51.8,65.53ZM32.24,76.85l13.26-7.67,52.92,8.51c0,.19-.05.38-.07.57H32.24Zm85.13,147.64-17.45-10.1A17.71,17.71,0,0,0,105,211a17.81,17.81,0,0,0,24.68,0,17.72,17.72,0,0,0,5.11,3.42Zm22-12.73a13.83,13.83,0,0,1-8.15-4.9L129.71,205l-1.52,1.88a13.9,13.9,0,0,1-21.64,0L105,205l-1.52,1.88a13.83,13.83,0,0,1-8.15,4.9L70.53,197.38a23.59,23.59,0,0,0,12.93-6.78,23.63,23.63,0,0,0,17,7.12l.88,0a4.63,4.63,0,0,0,1.13,3.33,4,4,0,0,0,3,1.38,4.62,4.62,0,0,0,1.94-.45l1-.48,1.07-.49.57-.28.23-.12a4.39,4.39,0,0,0,.73,2.94,6.14,6.14,0,0,0,3.92,2.34,8,8,0,0,0,4.15-.21,3.69,3.69,0,0,0,2.34.76,6.21,6.21,0,0,0,4.8-2.52,10.28,10.28,0,0,0,.6-.91l.14-.26a10.21,10.21,0,0,0,1.25-.71,15.13,15.13,0,0,0,1.8-1.44l.71-.67.48-.47.66-.63a5.09,5.09,0,0,0,.89-1.17c.52,0,1,.06,1.56.06a23.63,23.63,0,0,0,17-7.12,23.6,23.6,0,0,0,12.93,6.78Zm-35.06-18.69-.05-.19c0-.65-.09-1.24.48-1.72s1.26-.17,1.87.12l.74.34c1.61.74,3.68,2,5.46,1a1.38,1.38,0,0,0,.59-.51,1,1,0,0,0,.06-.83,1.48,1.48,0,0,0-.67-.55,1.64,1.64,0,0,1-.76-.9,2.05,2.05,0,0,1,1.29-2.37,11.33,11.33,0,0,1,6.63-1.19c1.35.2,3.42.63,3.89,2.14a3.26,3.26,0,0,0,.4,1c.42.57,1.16.64,1.75.95a14.25,14.25,0,0,1,3.17,2.59l.69.67a2.07,2.07,0,0,1,0,3.05l-.69.67-.47.45-.66.62a12.42,12.42,0,0,1-1.45,1.17,7.45,7.45,0,0,1-1,.58,2.29,2.29,0,0,0-.7.44,4.29,4.29,0,0,0-.55.91,7.41,7.41,0,0,1-.43.65c-1,1.31-2.69,1.56-3,1.15a.25.25,0,0,1,0-.16,2.59,2.59,0,0,1,.33-.92c.1-.22.35-.73.06-.91a.48.48,0,0,0-.18-.06c-.32-.05-.56.23-.77.43a5.3,5.3,0,0,1-1.91,1.11,5.07,5.07,0,0,1-2.79.19,3.48,3.48,0,0,1-2.12-1.14,1.43,1.43,0,0,1-.19-1.17,1.35,1.35,0,0,1,.39-.63c.21-.19.52-.26.69-.49a.7.7,0,0,0,.11-.54,1.72,1.72,0,0,0-.6-1l-.08-.07a4.33,4.33,0,0,0-3.19-.52,5.08,5.08,0,0,0-1.2.31c-.37.15-.72.36-1.08.53l-2.11,1a1.22,1.22,0,0,1-1.56-.22,1.72,1.72,0,0,1-.34-1.59l.05-.19a8.13,8.13,0,0,0,0-4.26Zm66.3.62a20.05,20.05,0,0,1-2.39.15,19.76,19.76,0,0,1-15.44-7.38l-1.52-1.88-1.52,1.88a19.76,19.76,0,0,1-15.44,7.38c-.36,0-.73,0-1.09,0a5.08,5.08,0,0,0-1.36-2.26l-.65-.63-.16-.16a15.92,15.92,0,0,0-3.69-2.92,6.55,6.55,0,0,0-.76-.33c-1.09-3.34-5-3.9-6.23-4.09a12.84,12.84,0,0,0-1.84-.13,14.81,14.81,0,0,0-6.49,1.58,5.15,5.15,0,0,0-3,4.31l-.45-.21-.6-.27-.14-.06-.08,0a5.33,5.33,0,0,0-2.32-.61,4,4,0,0,0-2.58,1,4.49,4.49,0,0,0-1.53,3.77v.58l.1.38,0,.16-1.07,0A19.76,19.76,0,0,1,85,186.44l-1.52-1.88-1.52,1.88a19.76,19.76,0,0,1-15.44,7.38,20.05,20.05,0,0,1-2.39-.15l-24-13.9a24.65,24.65,0,0,0,9.18-5.49,24.81,24.81,0,0,0,34.05,0,24.81,24.81,0,0,0,34.05,0,24.81,24.81,0,0,0,34.05,0,24.81,24.81,0,0,0,34.05,0,24.66,24.66,0,0,0,9.18,5.49Zm196.09-18.5H202.5a18.87,18.87,0,0,1-14.75-7.05l-2.28-2.82-2.28,2.82a18.95,18.95,0,0,1-29.49,0l-2.28-2.82-2.28,2.82a18.95,18.95,0,0,1-29.49,0l-2.28-2.82-2.28,2.82a18.95,18.95,0,0,1-29.49,0l-2.28-2.82L81,168.13a18.95,18.95,0,0,1-29.49,0l-2.28-2.82L47,168.13a18.87,18.87,0,0,1-14.75,7.05V84.11H395.72L345,146.32Z"/><path class="cls-1" d="M129.86,193.66l-.69-.67A14.25,14.25,0,0,0,126,190.4c-.59-.31-1.33-.38-1.75-.95a3.26,3.26,0,0,1-.4-1c-.46-1.51-2.53-1.95-3.89-2.14a11.33,11.33,0,0,0-6.63,1.19,2,2,0,0,0-1.3,2.37,1.64,1.64,0,0,0,.76.9,1.48,1.48,0,0,1,.67.55,1,1,0,0,1-.06.83,1.38,1.38,0,0,1-.59.51c-1.78.93-3.84-.29-5.46-1l-.74-.34c-.61-.28-1.26-.63-1.87-.12s-.48,1.07-.48,1.72l.05.19a8.13,8.13,0,0,1,0,4.26l-.05.19a1.72,1.72,0,0,0,.34,1.59,1.22,1.22,0,0,0,1.56.22l2.11-1c.36-.17.71-.38,1.08-.53a5.08,5.08,0,0,1,1.2-.31,4.33,4.33,0,0,1,3.19.52l.08.07a1.72,1.72,0,0,1,.6,1,.7.7,0,0,1-.11.54c-.17.22-.48.3-.69.49a1.35,1.35,0,0,0-.39.63,1.43,1.43,0,0,0,.19,1.17,3.48,3.48,0,0,0,2.12,1.14,5.06,5.06,0,0,0,2.79-.19,5.3,5.3,0,0,0,1.91-1.11c.21-.2.45-.49.77-.43a.48.48,0,0,1,.18.06c.29.18,0,.68-.06.91a2.6,2.6,0,0,0-.33.92.25.25,0,0,0,0,.16c.31.41,2,.16,3-1.15a7.44,7.44,0,0,0,.43-.65,4.29,4.29,0,0,1,.55-.91,2.3,2.3,0,0,1,.7-.44,7.45,7.45,0,0,0,1-.58,12.44,12.44,0,0,0,1.45-1.17l.66-.62.46-.45.69-.67a2.07,2.07,0,0,0,0-3.05Z"/><path class="cls-2" d="M117.37,224.49l-17.45-10.1A17.71,17.71,0,0,0,105,211a17.81,17.81,0,0,0,24.68,0,17.72,17.72,0,0,0,5.11,3.42Z"/><path class="cls-3" d="M139.38,211.75a13.83,13.83,0,0,1-8.15-4.9L129.71,205l-1.52,1.88a13.9,13.9,0,0,1-21.64,0L105,205l-1.52,1.88a13.83,13.83,0,0,1-8.15,4.9L70.53,197.38a23.59,23.59,0,0,0,12.93-6.78,23.63,23.63,0,0,0,17,7.12l.88,0a4.63,4.63,0,0,0,1.13,3.33,4,4,0,0,0,3,1.38,4.62,4.62,0,0,0,1.94-.45l1-.48,1.07-.49.57-.28.23-.12a4.39,4.39,0,0,0,.73,2.94,6.14,6.14,0,0,0,3.92,2.34,8,8,0,0,0,4.15-.21,3.69,3.69,0,0,0,2.34.76,6.21,6.21,0,0,0,4.8-2.52,10.28,10.28,0,0,0,.6-.91l.14-.26a10.21,10.21,0,0,0,1.25-.71,15.13,15.13,0,0,0,1.8-1.44l.71-.67.48-.47.66-.63a5.09,5.09,0,0,0,.89-1.17c.52,0,1,.06,1.56.06a23.63,23.63,0,0,0,17-7.12,23.6,23.6,0,0,0,12.93,6.78Z"/><path class="cls-2" d="M170.63,193.67a20.05,20.05,0,0,1-2.39.15,19.76,19.76,0,0,1-15.44-7.38l-1.52-1.88-1.52,1.88a19.76,19.76,0,0,1-15.44,7.38c-.36,0-.73,0-1.09,0a5.08,5.08,0,0,0-1.36-2.26l-.65-.63-.16-.16a15.92,15.92,0,0,0-3.69-2.92,6.55,6.55,0,0,0-.76-.33c-1.09-3.34-5-3.9-6.23-4.09a12.84,12.84,0,0,0-1.84-.13,14.81,14.81,0,0,0-6.49,1.58,5.15,5.15,0,0,0-3,4.31l-.45-.21-.6-.27-.14-.06-.08,0a5.33,5.33,0,0,0-2.32-.61,4,4,0,0,0-2.58,1,4.49,4.49,0,0,0-1.53,3.77v.58l.1.38,0,.16-1.07,0A19.76,19.76,0,0,1,85,186.44l-1.52-1.88-1.52,1.88a19.76,19.76,0,0,1-15.44,7.38,20.05,20.05,0,0,1-2.39-.15l-24-13.9a24.65,24.65,0,0,0,9.18-5.49,24.81,24.81,0,0,0,34.05,0,24.81,24.81,0,0,0,34.05,0,24.81,24.81,0,0,0,34.05,0,24.81,24.81,0,0,0,34.05,0,24.66,24.66,0,0,0,9.18,5.49Z"/><path class="cls-1" d="M128.82,43.77a1,1,0,0,0-1.23-.06,3.07,3.07,0,0,0-5.4,1.77,9.89,9.89,0,0,1-8.5-5.09,1,1,0,0,0-1.2-.44l-.12.05h0a1,1,0,0,0-.53.84A10.64,10.64,0,0,0,115,49.21l-.19,0a20.35,20.35,0,0,1-6.91-1.14h0a1,1,0,1,0-.64,1.84h0a22.43,22.43,0,0,0,3.88,1,10.21,10.21,0,0,0-1.65,1.47,1,1,0,1,0,1.45,1.3,8.36,8.36,0,0,1,4.15-2.5,19,19,0,0,0,13.83-6A1,1,0,0,0,128.82,43.77Z"/><path class="cls-4" d="M131.74,35.91l13.7,7.93L128.62,64.17A19,19,0,0,0,124,61.65l3.43-11.35a19.75,19.75,0,0,0,3.7-3.2,3.87,3.87,0,0,0-.93-6Z"/><path class="cls-5" d="M117.37,27.59l10.28,5.95-1.56,6.26a5.79,5.79,0,0,0-5.75,2.48A7,7,0,0,1,116.25,39a3.9,3.9,0,0,0-4.77-1.77l0,0-.25.06-.36.23a3.91,3.91,0,0,0-1.93,3.25c0,.49,0,1,0,1.44l-2.12-8.51Z"/><path class="cls-5" d="M122.91,52.61l-2,8.18a18.79,18.79,0,0,0-7.31.06l-1.14-4.6a3.86,3.86,0,0,0,.69-.6,5.38,5.38,0,0,1,2.41-1.54A23.47,23.47,0,0,0,122.91,52.61Z"/><path class="cls-4" d="M102.72,36.07l2.9,9.58a3.89,3.89,0,0,0,.65,7.07h0a4,4,0,0,0,0,.53,3.91,3.91,0,0,0,2.61,3.48l.06,0,1.51,5a19,19,0,0,0-4.58,2.56L89.08,44Z"/><path class="cls-5" d="M98.36,78.25H32.24v-1.4l13.26-7.67,52.92,8.51C98.41,77.87,98.38,78.06,98.36,78.25Z"/><path class="cls-4" d="M98.92,74.81,51.8,65.53,66.53,57,99.68,72.51A18.92,18.92,0,0,0,98.92,74.81Z"/><path class="cls-5" d="M71.45,54.16l13.43-7.77,18.6,20.12a19.17,19.17,0,0,0-2.42,3.18Z"/><path class="cls-4" d="M114.79,78.25H102.27a15.11,15.11,0,0,1,4.26-9.3c.21-.21.4-.42.62-.62l.25-.21c.31-.27.62-.53,1-.77a15,15,0,0,1,11.56-2.75q.74.13,1.45.32h0c.46.13.92.28,1.36.45a15.09,15.09,0,0,1,3.4,1.84c.36.26.71.54,1,.83l.18.15c.31.27.6.56.88.85a15.11,15.11,0,0,1,4.18,9.21Z"/><path class="cls-5" d="M131.1,66.34l18.55-20.07,13.64,7.89L133.69,69.7A19.16,19.16,0,0,0,131.1,66.34Z"/><path class="cls-4" d="M135.81,74.75a18.9,18.9,0,0,0-.74-2.25L168.22,57l14.64,8.47Z"/><path class="cls-5" d="M202.5,78.25H136.38c0-.21-.05-.41-.07-.62l52.86-8.5,13.34,7.72Z"/><path d="M64.63,123.78H44.95V95.84H64.63v6.64h-12v4.09H62v6.6H52.63v4h12Z"/><path d="M87.79,113.44c0,5.6-1.89,10.65-10.46,10.65-7.68,0-11.15-4.21-11.15-14.13s3.47-14.44,11.15-14.44c8.49,0,10.46,5,10.5,10.88l-7.06,1.16c0-2.86-1-5.21-3.43-5.21s-3.4,2.28-3.4,7.6c0,5.17,1,7.29,3.4,7.29s3.43-1.58,3.43-5Z"/><path d="M89.4,110c0-9.92,3.47-14.44,11.15-14.44S111.71,100,111.71,110s-3.47,14.13-11.15,14.13S89.4,119.89,89.4,110ZM104,110c0-5.33-1-7.6-3.4-7.6s-3.4,2.28-3.4,7.6c0,5.17,1,7.29,3.4,7.29S104,115.14,104,110Z"/><path d="M127,113.48H114.3v-6.84h14.8Z"/><path d="M127.42,123.78l8-27.94h7.64l8,27.94h-8l-1-4.71h-5.67l-1,4.71Zm10-9.65h3.67l-1.85-8.84Z"/><path d="M152.39,95.84h8.49c8,0,14,5.52,14,14.16s-6,13.78-14,13.78h-8.49Zm7.68,6.64v14.71h.62c4.13,0,6.45-2.51,6.45-7.18s-2.35-7.53-6.45-7.53Z"/><path d="M182.3,123.78l-8-27.94h8.61l3.78,17,3.86-17h8l-8,27.94Z"/><path d="M219.46,123.78H199.78V95.84h19.68v6.64h-12v4.09h9.38v6.6h-9.38v4h12Z"/><path d="M244.7,95.84v27.94H237v-9.73l-7.22-7.1v16.83h-7.68V95.84h6.25l8.64,8.61V95.84Z"/><path d="M267.39,102.44h-6.44v21.34h-7.68V102.44h-6.44v-6.6h20.57Z"/><path d="M290.9,95.84v17.87c0,6.37-2.35,10.38-10.81,10.38s-10.77-4-10.77-10.38V95.84H277v17.1c0,2.55.73,4.32,3.09,4.32s3.13-1.74,3.13-4.32V95.84Z"/><path d="M308,123.78l-4.25-8.92h-2v8.92H294.1V95.84h10c6.83,0,11.46,2.35,11.46,10a8,8,0,0,1-4.75,7.64l4.86,10.3Zm-6.25-21.3V109h2.89c2.24,0,3.94-1,3.94-3.24s-1.85-3.24-4.28-3.24Z"/><path d="M337.63,123.78H317.95V95.84h19.68v6.64h-12v4.09H335v6.6h-9.38v4h12Z"/><path d="M65.75,150.36c0,5.6-1.89,10.65-10.46,10.65-7.68,0-11.15-4.21-11.15-14.13s3.47-14.44,11.15-14.44c8.49,0,10.46,5,10.5,10.88l-7.06,1.16c0-2.86-1-5.21-3.43-5.21s-3.4,2.28-3.4,7.6c0,5.17,1,7.29,3.4,7.29s3.43-1.58,3.43-5Z"/><path d="M65.74,160.71l8-27.94h7.64l8,27.94h-8l-1-4.71H74.74l-1,4.71Zm10-9.65h3.67l-1.85-8.84Z"/><path d="M98.4,145.27v15.44H90.72V132.77H97l7.1,9.53,7.1-9.53h6.25v27.94h-7.68V145.27l-5.67,7.14Z"/><path d="M131.24,132.77c6.83,0,11.46,2.35,11.46,10,0,6.48-4.86,9.76-11.54,9.76H128.5v8.18h-7.68V132.77Zm-2.74,6.64v6.48h3.28c2.24,0,3.94-1,3.94-3.24s-1.85-3.24-4.28-3.24Z"/><path d="M160.87,144.78h-8.48v-12h8.48v2.86H155.7v1.76h4v2.84h-4v1.73h5.17Z"/><path d="M169.12,144.78H162v-12h3.31v9.19h3.79Z"/><path d="M170,132.75h3.66c3.34,0,5.1,1,5.1,3.06a2.57,2.57,0,0,1-1.45,2.59,3,3,0,0,1,2,2.86c0,2.54-1.74,3.52-5.05,3.52H170Zm3.31,2.63v2.19h1c.72,0,1.28-.38,1.28-1.1s-.63-1.1-1.43-1.1Zm0,4.57v2.21h1.1c1.35,0,1.88-.4,1.88-1.06,0-.85-.52-1.15-1.86-1.15Z"/><path d="M180,138.83c0-4.27,1.49-6.22,4.8-6.22s4.8,1.94,4.8,6.22-1.5,6.08-4.8,6.08S180,143.1,180,138.83Zm6.26,0c0-2.29-.43-3.27-1.46-3.27s-1.46,1-1.46,3.27.43,3.14,1.46,3.14S186.24,141.06,186.24,138.83Z"/><path d="M192.48,144.78l-2.79-12h3.54l1.21,7.28,1.61-7.28H199l2,7.28,1-7.28h3.37l-2.54,12h-3.51l-1.61-7.66-1.71,7.66Z"/><path d="M159.49,160.58h-7.1v-12h3.31v9.19h3.79Z"/><path d="M159.49,160.58l3.46-12h3.29l3.46,12h-3.46l-.43-2h-2.44l-.42,2Zm4.3-4.15h1.58l-.8-3.81Z"/><path d="M176.4,160.58l-2.31-3.31-.53.7v2.61h-3.31v-12h3.31V153l3.17-4.5h3.89l-4.6,6.15,4.27,5.88Z"/><path d="M189.47,160.58H181v-12h8.48v2.86H184.3v1.76h4V156h-4v1.73h5.17Z"/><path d="M331.68,153.12l-3.42-15.42a3,3,0,0,0-6,.63l0,4.51a5.88,5.88,0,0,0-4.87,0l0-4.51a3,3,0,0,0-6-.63L308,153.12a5,5,0,0,0-.11,1.08,4.81,4.81,0,1,0,9.62-.08l-.06-7.19a2.72,2.72,0,0,1,4.79,0l-.06,7.19a5,5,0,0,0,.11,1.08,4.81,4.81,0,1,0,9.39-2.08Zm-19.08,3.77a1.89,1.89,0,1,1,2.37-1.83A2.15,2.15,0,0,1,312.6,156.89Zm14.48,0a1.89,1.89,0,1,1,2.37-1.83A2.15,2.15,0,0,1,327.08,156.89Z"/><path d="M227.46,136.26a7.31,7.31,0,0,0-4.24-1.35h0a7.35,7.35,0,0,0-5.45,12.3l-.67,1,0,0a2.34,2.34,0,0,0-2,1l-3.07,4.34a2.34,2.34,0,1,0,3.82,2.7l3.07-4.34a2.33,2.33,0,0,0,.27-2.19l0,0,.62-.87a7.35,7.35,0,0,0,7.56-12.57Zm-1,8.32a4,4,0,1,1-1-5.6A4,4,0,0,1,226.5,144.58Z"/><path d="M291.31,135.58a1.16,1.16,0,0,0-1.43.25,18.52,18.52,0,0,1-13.76,6.1H264.94l2.41-2.84.75.64a1,1,0,0,0,1.23-1.46l-3-2.51a1,1,0,0,0-1.23,1.46l.76.64-3.45,4.08h-.79a18.52,18.52,0,0,1-13.76-6.1,1.16,1.16,0,0,0-1.43-.25,10.53,10.53,0,0,0,1.44,19l-.14.16a2.82,2.82,0,0,0,.27,4l1.67,1.41a2.82,2.82,0,0,0,4-.39l3.78-4.47h28.68a10.93,10.93,0,0,0,1.22-.07,10.53,10.53,0,0,0,4-19.64Zm-34,17-5.08,6a1,1,0,0,1-1.33.17l-1.67-1.41a1,1,0,0,1,0-1.34l5.08-6a4.63,4.63,0,0,1,4-1.64A4.63,4.63,0,0,1,257.31,152.55Z"/></svg>